<mxfile host="app.diagrams.net" agent="Mozilla/5.0 (Windows NT 10.0; Win64; x64) AppleWebKit/537.36 (KHTML, like Gecko) Chrome/129.0.0.0 Safari/537.36" version="24.7.17">
  <diagram name="Page-1" id="VRnJGMr--7IXSa9Kvhcf">
    <mxGraphModel grid="1" page="1" gridSize="10" guides="1" tooltips="1" connect="1" arrows="1" fold="1" pageScale="1" pageWidth="850" pageHeight="1100" math="0" shadow="0">
      <root>
        <mxCell id="0" />
        <mxCell id="1" parent="0" />
        <mxCell id="G4MAbUmZ-y5QjbJ9B5r0-1" value="Use Case Diagram" style="whiteSpace=wrap;strokeWidth=2;fillColor=#fff2cc;strokeColor=#d6b656;" vertex="1" parent="1">
          <mxGeometry x="184" y="119" width="865" height="197" as="geometry" />
        </mxCell>
        <mxCell id="G4MAbUmZ-y5QjbJ9B5r0-2" value="Applicant" style="whiteSpace=wrap;strokeWidth=2;fillColor=#f8cecc;strokeColor=#b85450;" vertex="1" parent="1">
          <mxGeometry x="20" y="144" width="129" height="49" as="geometry" />
        </mxCell>
        <mxCell id="G4MAbUmZ-y5QjbJ9B5r0-3" value="Hiring Manager" style="whiteSpace=wrap;strokeWidth=2;fillColor=#f8cecc;strokeColor=#b85450;" vertex="1" parent="1">
          <mxGeometry x="641" y="20" width="168" height="49" as="geometry" />
        </mxCell>
        <mxCell id="G4MAbUmZ-y5QjbJ9B5r0-4" value="Billing Department" style="whiteSpace=wrap;strokeWidth=2;fillColor=#f8cecc;strokeColor=#b85450;" vertex="1" parent="1">
          <mxGeometry x="1084" y="144" width="195" height="49" as="geometry" />
        </mxCell>
        <mxCell id="G4MAbUmZ-y5QjbJ9B5r0-5" value="Submit Application" style="rounded=1;arcSize=40;strokeWidth=2;fillColor=#ffe6cc;strokeColor=#d79b00;" vertex="1" parent="1">
          <mxGeometry x="219" y="242" width="165" height="49" as="geometry" />
        </mxCell>
        <mxCell id="G4MAbUmZ-y5QjbJ9B5r0-6" value="Track Application" style="rounded=1;arcSize=40;strokeWidth=2;fillColor=#ffe6cc;strokeColor=#d79b00;" vertex="1" parent="1">
          <mxGeometry x="434" y="242" width="154" height="49" as="geometry" />
        </mxCell>
        <mxCell id="G4MAbUmZ-y5QjbJ9B5r0-7" value="Review Application" style="rounded=1;arcSize=40;strokeWidth=2;fillColor=#ffe6cc;strokeColor=#d79b00;" vertex="1" parent="1">
          <mxGeometry x="739" y="144" width="165" height="49" as="geometry" />
        </mxCell>
        <mxCell id="G4MAbUmZ-y5QjbJ9B5r0-8" value="Approve Application" style="rounded=1;arcSize=40;strokeWidth=2;fillColor=#ffe6cc;strokeColor=#d79b00;" vertex="1" parent="1">
          <mxGeometry x="637" y="242" width="174" height="49" as="geometry" />
        </mxCell>
        <mxCell id="G4MAbUmZ-y5QjbJ9B5r0-9" value="Generate Invoice" style="rounded=1;arcSize=40;strokeWidth=2;fillColor=#ffe6cc;strokeColor=#d79b00;" vertex="1" parent="1">
          <mxGeometry x="862" y="242" width="152" height="49" as="geometry" />
        </mxCell>
        <mxCell id="G4MAbUmZ-y5QjbJ9B5r0-10" value="" style="curved=1;startArrow=none;endArrow=block;exitX=1;exitY=0.79;entryX=0.5;entryY=0.01;rounded=0;" edge="1" parent="1" source="G4MAbUmZ-y5QjbJ9B5r0-2" target="G4MAbUmZ-y5QjbJ9B5r0-5">
          <mxGeometry relative="1" as="geometry">
            <Array as="points">
              <mxPoint x="301" y="217" />
            </Array>
          </mxGeometry>
        </mxCell>
        <mxCell id="G4MAbUmZ-y5QjbJ9B5r0-11" value="" style="curved=1;startArrow=none;endArrow=block;exitX=1;exitY=0.64;entryX=0.5;entryY=0.01;rounded=0;" edge="1" parent="1" source="G4MAbUmZ-y5QjbJ9B5r0-2" target="G4MAbUmZ-y5QjbJ9B5r0-6">
          <mxGeometry relative="1" as="geometry">
            <Array as="points">
              <mxPoint x="510" y="217" />
            </Array>
          </mxGeometry>
        </mxCell>
        <mxCell id="G4MAbUmZ-y5QjbJ9B5r0-12" value="" style="curved=1;startArrow=none;endArrow=block;exitX=0.78;exitY=0.99;entryX=0.5;entryY=-0.01;rounded=0;" edge="1" parent="1" source="G4MAbUmZ-y5QjbJ9B5r0-3" target="G4MAbUmZ-y5QjbJ9B5r0-7">
          <mxGeometry relative="1" as="geometry">
            <Array as="points">
              <mxPoint x="821" y="94" />
            </Array>
          </mxGeometry>
        </mxCell>
        <mxCell id="G4MAbUmZ-y5QjbJ9B5r0-13" value="" style="curved=1;startArrow=none;endArrow=block;exitX=0.21;exitY=0.99;entryX=0.23;entryY=0.01;rounded=0;" edge="1" parent="1" source="G4MAbUmZ-y5QjbJ9B5r0-3" target="G4MAbUmZ-y5QjbJ9B5r0-8">
          <mxGeometry relative="1" as="geometry">
            <Array as="points">
              <mxPoint x="628" y="94" />
              <mxPoint x="628" y="217" />
            </Array>
          </mxGeometry>
        </mxCell>
        <mxCell id="G4MAbUmZ-y5QjbJ9B5r0-14" value="" style="curved=1;startArrow=none;endArrow=block;exitX=0;exitY=0.89;entryX=0.5;entryY=0.01;rounded=0;" edge="1" parent="1" source="G4MAbUmZ-y5QjbJ9B5r0-4" target="G4MAbUmZ-y5QjbJ9B5r0-9">
          <mxGeometry relative="1" as="geometry">
            <Array as="points">
              <mxPoint x="938" y="217" />
            </Array>
          </mxGeometry>
        </mxCell>
        <mxCell id="G4MAbUmZ-y5QjbJ9B5r0-15" value="" style="curved=1;startArrow=none;endArrow=block;exitX=0.5;exitY=0.99;entryX=0.78;entryY=0.01;rounded=0;" edge="1" parent="1" source="G4MAbUmZ-y5QjbJ9B5r0-7" target="G4MAbUmZ-y5QjbJ9B5r0-8">
          <mxGeometry relative="1" as="geometry">
            <Array as="points">
              <mxPoint x="821" y="217" />
            </Array>
          </mxGeometry>
        </mxCell>
        <mxCell id="G4MAbUmZ-y5QjbJ9B5r0-16" value="Tip Top Staffing System" style="whiteSpace=wrap;strokeWidth=2;fillColor=#fff2cc;strokeColor=#d6b656;" vertex="1" parent="1">
          <mxGeometry x="440" y="439" width="286" height="395" as="geometry" />
        </mxCell>
        <mxCell id="G4MAbUmZ-y5QjbJ9B5r0-17" value="Applicant" style="whiteSpace=wrap;strokeWidth=2;fillColor=#f8cecc;strokeColor=#b85450;" vertex="1" parent="1">
          <mxGeometry x="527" y="340" width="129" height="49" as="geometry" />
        </mxCell>
        <mxCell id="G4MAbUmZ-y5QjbJ9B5r0-18" value="Submit Application" style="whiteSpace=wrap;strokeWidth=2;fillColor=#ffe6cc;strokeColor=#d79b00;" vertex="1" parent="1">
          <mxGeometry x="494" y="464" width="195" height="49" as="geometry" />
        </mxCell>
        <mxCell id="G4MAbUmZ-y5QjbJ9B5r0-19" value="Hiring Manager" style="whiteSpace=wrap;strokeWidth=2;fillColor=#f8cecc;strokeColor=#b85450;" vertex="1" parent="1">
          <mxGeometry x="237" y="464" width="168" height="49" as="geometry" />
        </mxCell>
        <mxCell id="G4MAbUmZ-y5QjbJ9B5r0-20" value="Review Application" style="whiteSpace=wrap;strokeWidth=2;fillColor=#ffe6cc;strokeColor=#d79b00;" vertex="1" parent="1">
          <mxGeometry x="484" y="562" width="195" height="49" as="geometry" />
        </mxCell>
        <mxCell id="G4MAbUmZ-y5QjbJ9B5r0-21" value="Billing Department" style="whiteSpace=wrap;strokeWidth=2;fillColor=#f8cecc;strokeColor=#b85450;" vertex="1" parent="1">
          <mxGeometry x="210" y="661" width="195" height="49" as="geometry" />
        </mxCell>
        <mxCell id="G4MAbUmZ-y5QjbJ9B5r0-22" value="Generate Invoice" style="whiteSpace=wrap;strokeWidth=2;fillColor=#ffe6cc;strokeColor=#d79b00;" vertex="1" parent="1">
          <mxGeometry x="481" y="760" width="182" height="49" as="geometry" />
        </mxCell>
        <mxCell id="G4MAbUmZ-y5QjbJ9B5r0-23" value="Approve Application" style="whiteSpace=wrap;strokeWidth=2;fillColor=#ffe6cc;strokeColor=#d79b00;" vertex="1" parent="1">
          <mxGeometry x="480" y="661" width="204" height="49" as="geometry" />
        </mxCell>
        <mxCell id="G4MAbUmZ-y5QjbJ9B5r0-24" value="" style="curved=1;startArrow=none;endArrow=block;exitX=0.5;exitY=0.99;entryX=0.5;entryY=-0.01;rounded=0;" edge="1" parent="1" source="G4MAbUmZ-y5QjbJ9B5r0-17" target="G4MAbUmZ-y5QjbJ9B5r0-18">
          <mxGeometry relative="1" as="geometry">
            <Array as="points" />
          </mxGeometry>
        </mxCell>
        <mxCell id="G4MAbUmZ-y5QjbJ9B5r0-25" value="" style="curved=1;startArrow=none;endArrow=block;exitX=1;exitY=0.91;entryX=0.35;entryY=0.01;rounded=0;" edge="1" parent="1" source="G4MAbUmZ-y5QjbJ9B5r0-19" target="G4MAbUmZ-y5QjbJ9B5r0-20">
          <mxGeometry relative="1" as="geometry">
            <Array as="points">
              <mxPoint x="523" y="537" />
            </Array>
          </mxGeometry>
        </mxCell>
        <mxCell id="G4MAbUmZ-y5QjbJ9B5r0-26" value="" style="curved=1;startArrow=none;endArrow=block;exitX=1;exitY=0.97;entryX=0.34;entryY=-0.01;rounded=0;" edge="1" parent="1" source="G4MAbUmZ-y5QjbJ9B5r0-21" target="G4MAbUmZ-y5QjbJ9B5r0-22">
          <mxGeometry relative="1" as="geometry">
            <Array as="points">
              <mxPoint x="513" y="735" />
            </Array>
          </mxGeometry>
        </mxCell>
        <mxCell id="G4MAbUmZ-y5QjbJ9B5r0-27" value="" style="curved=1;startArrow=none;endArrow=block;exitX=0.5;exitY=0.99;entryX=0.53;entryY=0.01;rounded=0;" edge="1" parent="1" source="G4MAbUmZ-y5QjbJ9B5r0-18" target="G4MAbUmZ-y5QjbJ9B5r0-20">
          <mxGeometry relative="1" as="geometry">
            <Array as="points">
              <mxPoint x="592" y="537" />
            </Array>
          </mxGeometry>
        </mxCell>
        <mxCell id="G4MAbUmZ-y5QjbJ9B5r0-28" value="" style="curved=1;startArrow=none;endArrow=block;exitX=0.5;exitY=1;entryX=0.5;entryY=0;rounded=0;" edge="1" parent="1" source="G4MAbUmZ-y5QjbJ9B5r0-20" target="G4MAbUmZ-y5QjbJ9B5r0-23">
          <mxGeometry relative="1" as="geometry">
            <Array as="points" />
          </mxGeometry>
        </mxCell>
        <mxCell id="G4MAbUmZ-y5QjbJ9B5r0-29" value="" style="curved=1;startArrow=none;endArrow=block;exitX=0.5;exitY=0.99;entryX=0.53;entryY=-0.01;rounded=0;" edge="1" parent="1" source="G4MAbUmZ-y5QjbJ9B5r0-23" target="G4MAbUmZ-y5QjbJ9B5r0-22">
          <mxGeometry relative="1" as="geometry">
            <Array as="points">
              <mxPoint x="582" y="735" />
            </Array>
          </mxGeometry>
        </mxCell>
        <mxCell id="G4MAbUmZ-y5QjbJ9B5r0-30" value="A)" style="text;html=1;align=center;verticalAlign=middle;resizable=0;points=[];autosize=1;strokeColor=none;fillColor=none;" vertex="1" parent="1">
          <mxGeometry x="190" y="8" width="40" height="30" as="geometry" />
        </mxCell>
        <mxCell id="G4MAbUmZ-y5QjbJ9B5r0-31" value="B)" style="text;html=1;align=center;verticalAlign=middle;resizable=0;points=[];autosize=1;strokeColor=none;fillColor=none;" vertex="1" parent="1">
          <mxGeometry x="190" y="328" width="40" height="30" as="geometry" />
        </mxCell>
      </root>
    </mxGraphModel>
  </diagram>
</mxfile>
